<svg xmlns="http://www.w3.org/2000/svg" viewBox="0 0 395.25 459">
  <defs>
    <style>.a{fill:none;}.b{fill:#be1e2d;}.c{fill:#000;}</style>
  </defs>
  <path class="a" d="M1611.22,948.34a4.13,4.13,0,0,0,1.75,2.16l4.58-6.43A14,14,0,0,0,1611.22,948.34Z" transform="translate(-1242.52 -670.98)" />
  <path class="a" d="M1554,770.5c2.23,1.35,4.41,2.79,6.52,4.3l4-5.62A107.19,107.19,0,0,0,1545,758.1l-4.13,5.76q3.6,1.51,7,3.25c-7.14,10.47-18.33,20.51-29.48,28.06l-10.06,14C1525.85,800.61,1544.07,785.23,1554,770.5Z" transform="translate(-1242.52 -670.98)" />
  <path class="a" d="M1401.39,895.4h-6.22C1397.87,896.43,1400,896.43,1401.39,895.4Z" transform="translate(-1242.52 -670.98)" />
  <path class="a" d="M1606.54,1061.07V962.59h0a55.9,55.9,0,0,1-8.74-.56,14.63,14.63,0,0,0-2.85.81,19.8,19.8,0,0,0-5,3v95.24Z" transform="translate(-1242.52 -670.98)" />
  <path class="a" d="M1547.47,883.57c-.69.9-1.42,1.74-2.18,2.56a1.32,1.32,0,0,0,1,.1l6.65-2.13-3.77-2.8Z" transform="translate(-1242.52 -670.98)" />
  <path class="a" d="M1491.75,1003a26.22,26.22,0,0,1,3.74-6c.69-.9,1.55-2,1.5-2.33-3.25-2.85-6.5,1.66-9.24,3.33-.47.29-.94.61-1.43.94-2.32,1.55-5.46,1.23-8.31-.41-.15-.08-.32-.13-.4-.29a.57.57,0,0,1,0-.51l.15-.34a62.26,62.26,0,0,0,3.36-7.84c.84-2.62.53-5.43.54-8.13,0-1.08-.55-1-1.42-.88a24.56,24.56,0,0,1-3,.09c-1.26,0-2.52-.12-3.77-.12-1.85,0-3.71,0-5.55-.11h0V1003Z" transform="translate(-1242.52 -670.98)" />
  <path class="a" d="M1617.55,788.25l-.67,3.47c-.14.74-.29,1.48-.43,2.22l-.27,1.4c0,.09-.11.31-.08.4.09.28.85.52,1.12.65a27.87,27.87,0,0,1,4.1-2.2c1.19-.49,2.41-1,3.41-1.51l-6.42-8.95C1618.08,785.24,1617.83,786.75,1617.55,788.25Z" transform="translate(-1242.52 -670.98)" />
  <path class="a" d="M1388.77,816.06a31.79,31.79,0,0,0,5.31,8.05c2.89,3,7.54,2.78,7.54,2.78s-3.48-16.76-6.27-23.73v12.9Z" transform="translate(-1242.52 -670.98)" />
  <path class="a" d="M1562.39,835.21l-1.28-1.71a49.85,49.85,0,0,0-29.18-19l3.47-4.83a57.22,57.22,0,0,1-27.76.54l-1.54,2.14v-9.82a73.2,73.2,0,0,1-9.32,4.06,57.57,57.57,0,0,1-13.19-8.26v31.54a49.86,49.86,0,0,0-13,33.59,50.42,50.42,0,0,0,.62,7.82c.2.73.39,1.46.6,2.18a11.56,11.56,0,0,0,7.32,7.85c.65.23,1.28.52,1.91.79,1.76.77,3.52,1.54,5.33,2.2a23.89,23.89,0,0,0,2.72.87c1,.24,2.19.62,3.13.06a3.81,3.81,0,0,0,.71-.62,16.67,16.67,0,0,0,1.19-1.32,33.22,33.22,0,0,1,26.78-53,32.66,32.66,0,0,1,26.54,13.32l1.71,2.31,13.24-9.69V881a11.55,11.55,0,0,0,6.67-7.57,177.13,177.13,0,0,0,5.57-27.28c1-8.87,1.41-20.42-1.41-30.11h-10.83Z" transform="translate(-1242.52 -670.98)" />
  <path class="a" d="M1354.22,916.78a74.86,74.86,0,0,0-2,15.93c14.21.95,32.39,7.62,45.09,16.49A45,45,0,0,0,1354.22,916.78Z" transform="translate(-1242.52 -670.98)" />
  <path class="a" d="M1348.61,917.1a45,45,0,0,0-21,8.28c-2.38,12.48-.46,34.8,6.77,49.8a90,90,0,0,0,16.64-14C1346.38,946,1345.57,931.14,1348.61,917.1Z" transform="translate(-1242.52 -670.98)" />
  <polygon class="a" points="111.22 245.18 111.22 245.18 111.22 245.18 111.22 245.18" />
  <path class="a" d="M1379.39,853.39a30.9,30.9,0,0,0,6.15,5.09c.61.42,1.21.83,1.77,1.24a25,25,0,0,0,7.24,3.3l1.79.61,2.05.74c.91.34,1.81.66,2.71,1h1.13V855.22a52.61,52.61,0,0,0-5.14-7h-21A32.26,32.26,0,0,0,1379.39,853.39Z" transform="translate(-1242.52 -670.98)" />
  <path class="b" d="M1314.7,840.44a7.64,7.64,0,0,0-7.4-7.54h-18.22v14.94h18.32A7.5,7.5,0,0,0,1314.7,840.44Z" transform="translate(-1242.52 -670.98)" />
  <path class="b" d="M1289.08,894.66v.87H1314A15.64,15.64,0,0,0,1329.07,880,15.34,15.34,0,0,0,1314,864.69h-24.92v12.64l4,3.24c1.45,1.15,3,2.41,3.58,4.16C1298.21,889,1294,892.06,1289.08,894.66Z" transform="translate(-1242.52 -670.98)" />
  <path class="b" d="M1338.3,1030.26a8.22,8.22,0,0,0-8-8.11h-20.26v16.08h20.36A8.07,8.07,0,0,0,1338.3,1030.26Z" transform="translate(-1242.52 -670.98)" />
  <path class="b" d="M1337.94,1058.27h-27.85v0q22.19,9.3,44.46,18.42c0-.51.07-1,.07-1.54A17,17,0,0,0,1337.94,1058.27Z" transform="translate(-1242.52 -670.98)" />
  <path class="b" d="M1391.67,1078.13l-4.53,11.86q25.06,10.11,50.19,20l-12.18-31.9Z" transform="translate(-1242.52 -670.98)" />
  <path class="b" d="M1390.63,926.21c-.54-1.12-1.1-2.28-1.75-3.43-.27-.48-.57-1-.87-1.51a60.25,60.25,0,0,1-4.13-8.11.55.55,0,0,1,.16-.64.51.51,0,0,1,.65,0c1.24.85,2.46,1.83,3.63,2.77a31.42,31.42,0,0,0,5.06,3.58,24,24,0,0,0,5.26,1.82v-8.29h-53.56V888.26a32.75,32.75,0,0,1-31,24.11H1272v-2.19c-1.92,1.56-3.31,3-1.65,6.62.33.7.64,1.43,0,2-2.36,2.2-.95,4.63-.69,7.08.47,4.34-.63,6.53-1.84,10.66-.06.19-.09.39-.14.59l15.19,39.54L1306.7,915h17.57l-9.63,25a45.54,45.54,0,0,1,6.81-9.23c-1.3,15.39,2,34.43,8.28,47.18a75.29,75.29,0,0,1-14.8,6.22,45,45,0,0,1-4.78-32.49l-19.41,50.43h39.74a27.13,27.13,0,0,1,4,.3A45.22,45.22,0,0,1,1318,988.86c13.67-4.36,26.1-12.45,37-24a89.66,89.66,0,0,1,20.48,7.38c-9.23,13.56-27.17,26.15-39.21,30.52a28.4,28.4,0,0,1,7.46,2.73c13.91-6.58,28.59-18.87,36.48-30.6a74.72,74.72,0,0,1,12.78,9.71,44.94,44.94,0,0,1-48.59,21.27,27.11,27.11,0,0,1,6,4.64,28,28,0,0,1,5.4,32.25,34.25,34.25,0,0,1,8.32,6.32,36,36,0,0,1,10.26,19.32l24.31-65.34V968.39a44.55,44.55,0,0,1-3.14,11.15c-10.62-9.66-23.84-16.37-39.33-20a89.84,89.84,0,0,1-3.86-21.44c16.5,1.23,36.61,10.62,46.33,18.91V935.78a28.82,28.82,0,0,1-4.63-4A22.59,22.59,0,0,1,1390.63,926.21Zm-36.9-10.05Zm-19.35,59c-7.23-15-9.15-37.32-6.77-49.8a45,45,0,0,1,21-8.28c-3,14-2.23,28.85,2.41,44A90,90,0,0,1,1334.38,975.18Zm17.84-42.47a74.86,74.86,0,0,1,2-15.93,45,45,0,0,1,43.09,32.42C1384.61,940.33,1366.43,933.66,1352.22,932.71Z" transform="translate(-1242.52 -670.98)" />
  <path class="b" d="M1601.59,742s10,10.22,14.65,15.67c2.62,3.08,3,7.22,3.15,11.13a81.68,81.68,0,0,1-1.08,15l6.42,8.95.57-.29.13-.06c.75-.39,1.48-.73,2.18-1.06,2.82-1.3,5.05-2.34,6.64-5.54,1.06-2.13,1.47-5.24,2-9.53l.25-1.87c.09-.67.2-1.39.31-2.14.29-2,.61-4.28.84-6.71q0-5.16,0-10.32,0-24,.07-48c0-9.33-.32-26.2-.15-35.52h-3.3l-43.6,60.9a21.13,21.13,0,0,1,5.06,3.69Z" transform="translate(-1242.52 -670.98)" />
  <path class="b" d="M1586.15,738.92l2.54,3.54q-.35-3-.77-6Z" transform="translate(-1242.52 -670.98)" />
  <path class="b" d="M1624.87,942.2a36,36,0,0,0-5.7,1.28c-.54.19-1.08.38-1.62.59L1613,950.5c1.82,1.15,4.86,1.4,9.08.76l1.1-.17a58.31,58.31,0,0,0,11.17-2.53.53.53,0,0,1,.65.25.58.58,0,0,1-.12.71,88.3,88.3,0,0,1-7.66,6,40.94,40.94,0,0,1-7.69,4.08l-1.39.61a25.23,25.23,0,0,1-9.82,2.37,2.19,2.19,0,0,0-.36,0,.55.55,0,0,1-.61.22c-.26-.09-.52-.15-.78-.22v98.48H1590V965.83a54,54,0,0,0-4.86,4.52l-.25.26c.57,1.63,1.72,4.47,4.21,4.23a.55.55,0,0,1,.57.39.59.59,0,0,1-.25.66,30.85,30.85,0,0,1-11.31,4.05,49.88,49.88,0,0,1-5.18.5c-1.83.14-3.69.06-5.54.11l-2.38-.23c-1.69-.49-3.33-1-4.94-1.4.25,1.65.36,3.4.45,5.23,0,.72,0,1.68,0,2.65h9.66v123.59h67l0-11.3q0-24.93.08-49.84,0-24.3,0-48.6,0-24.76.05-49.53,0-6.27,0-12.52a42.66,42.66,0,0,1-8.59,2.84C1627.48,941.75,1626.15,942,1624.87,942.2Z" transform="translate(-1242.52 -670.98)" />
  <path class="b" d="M1637.45,921.7v-5.53l-4.2,5.89A19,19,0,0,0,1637.45,921.7Z" transform="translate(-1242.52 -670.98)" />
  <path class="b" d="M1379.78,886.7a.58.58,0,0,1,.14-.71.53.53,0,0,1,.7,0,59.75,59.75,0,0,0,9.39,6.68l1,.59a26.21,26.21,0,0,0,4.19,2.12h6.22a4,4,0,0,0,.69-.61c-1-3.31-3.19-5.49-5.57-7.59a35.82,35.82,0,0,0-4.79-3.4c-1.11-.7-2.26-1.43-3.39-2.24a42,42,0,0,1-7.72-6.89,32.22,32.22,0,0,1-5.43-9l-.09-.31h-12.78V895.4h22.48c0-.07-.09-.13-.13-.19A92.38,92.38,0,0,1,1379.78,886.7Z" transform="translate(-1242.52 -670.98)" />
  <path class="b" d="M1401.1,865.33a30.19,30.19,0,0,0,4.73,1.25c.67.11,1.34.25,2,.39a65.11,65.11,0,0,0-5.61-11.75v10.11Z" transform="translate(-1242.52 -670.98)" />
  <path class="b" d="M1458.73,788.08a48,48,0,0,0,6.24,9.13l1,1.23c2.18,2.68,4,5,6.48,6.52a.57.57,0,0,1,.14.83c-8,10.46-7.77,28-6.35,40.38a173.56,173.56,0,0,0,5,25.1,50.42,50.42,0,0,1-.62-7.82,49.86,49.86,0,0,1,13-33.59V798.32a58.42,58.42,0,0,1-9.41-9.83q4.78-1.53,9.41-3.53v-7.61a95.69,95.69,0,0,1-13.38,5.12A57.77,57.77,0,0,1,1463.8,742h-11.57l-.15,1.23C1450.48,758.21,1451.91,774.47,1458.73,788.08Z" transform="translate(-1242.52 -670.98)" />
  <path class="b" d="M1423.65,796.39c.27-.13,1-.37,1.11-.65,0-.09-.06-.31-.07-.4l-.27-1.4c-.15-.74-.29-1.48-.43-2.22l-.68-3.47a93.08,93.08,0,0,1-1.83-19.49c.13-3.91.53-8,3.15-11.13,4.4-5.19,13.68-14.69,14.57-15.6h-21.33v51.44c.55.24,1.11.49,1.67.72A27.48,27.48,0,0,1,1423.65,796.39Z" transform="translate(-1242.52 -670.98)" />
  <path class="b" d="M1373.08,843.9a.53.53,0,0,1,.61.23c.83,1.27,1.59,2.64,2.33,4a.54.54,0,0,1,.07.13h21c-.51-.59-1-1.17-1.56-1.75-4-4.32-8.49-8.62-11.52-13.7h-21.7v15.45h10.56a36.71,36.71,0,0,1-.19-3.79A.57.57,0,0,1,1373.08,843.9Z" transform="translate(-1242.52 -670.98)" />
  <path class="b" d="M1483.59,742h-3.88a130.15,130.15,0,0,0,3.88,17.69Z" transform="translate(-1242.52 -670.98)" />
  <polygon class="b" points="156.82 387.59 174.99 387.59 165.95 363.93 156.82 387.59" />
  <polygon class="b" points="364.49 0.59 295.49 0.42 330.05 48.66 364.49 0.59" />
  <path class="b" d="M1383.87,806.74a.57.57,0,0,1,.52.36,49,49,0,0,0,3.11,6.54c.45.83.88,1.63,1.27,2.42h6.58v-12.9l-.13-.34c-2.6-6.25-3.64-12.6-2.26-19.27a40.13,40.13,0,0,1,2.39-7.3V713.17A35.5,35.5,0,0,1,1360.66,741h-28.31v72.33H1310V728.89a13.61,13.61,0,0,1-.59,3c-.65,1.66-2,3-2.83,4.54-1,1.94-1.26,4.21-2.15,6.21-2,4.55-8.57,4.84-11.26.69-1.48-2.28-1.73-5.64-4.19-6.81-2.88-1.37-8.28.17-11.72-.49-4.59-.88-8.08-1.73-11.78,2a2.49,2.49,0,0,0-.4.46c-2.18,3.14-2.08,8.83-.87,12.3,1.77,5.07,2.64,5.54.91,11.21-1.57,5.15,2.16,10.42,2.21,15.79.05,6-1,10.3.52,16.47,1.16,4.58,3,9.4,3.14,14.15a10.51,10.51,0,0,1-2.22,7.21,10.77,10.77,0,0,0-1.82,2.24,6.36,6.36,0,0,0-.46,2.29c-.49,6.68-1.21,13.64,1,20.12a26.71,26.71,0,0,0,4.5,7.7V816.06h35.44a24.43,24.43,0,0,1,21.72,35.51,29.77,29.77,0,0,1,7.59,5.69,31.17,31.17,0,0,1,8.35,14.34V816.06h35.44a50.48,50.48,0,0,1,2.84-9A.55.55,0,0,1,1383.87,806.74Z" transform="translate(-1242.52 -670.98)" />
  <path class="b" d="M1418.82,951.26c6.16.94,9.8,0,10.83-2.92-2.13-2.69-5-3.84-8-4.86a30,30,0,0,0-4.75-1.12V951l.78.12Z" transform="translate(-1242.52 -670.98)" />
  <path class="b" d="M1416.94,919.48v2l.83,0C1417.49,920.74,1417.22,920.09,1416.94,919.48Z" transform="translate(-1242.52 -670.98)" />
  <path class="b" d="M1550.09,1007.57V1003h-1.38a19.87,19.87,0,0,1,.75,1.93A16.62,16.62,0,0,1,1550.09,1007.57Z" transform="translate(-1242.52 -670.98)" />
  <path class="b" d="M1545.84,1023c-.52.78-2.72,4.19-4.09,3.81a9.05,9.05,0,0,1-.41-1.14,8.21,8.21,0,0,0-1.3-2.91,2.75,2.75,0,0,0-2.63-1.21c-.2,0-1.94.12-2-.09.25,1,.59,2.2.9,3.26a18.74,18.74,0,0,1,.73,2.88,20.67,20.67,0,0,1-2.07,10.34c-.21.41-.43.81-.67,1.2s-.42.67-.66,1a15.91,15.91,0,0,1-3,3.11c-1.51,1.19-3.4,1.76-5,2.87-.57.4-1.07.9-1.67,1.25-.17.1-1.58.71-1.58.71-.18-.59.89-2.42,1.11-3a35.44,35.44,0,0,0,1.57-5.14c.82-4,.38-5-1.37-6.17-1.49-1-5.29-.44-7.26,1.6-1.16,1.2-1.78,3.34-.77,7.11-4.49-3-8-6.92-9-10.17-1.23-3.94-.63-7.83,0-11.33a12.64,12.64,0,0,1-2.22.47c-2.37.36-4.61.7-5.53,4.38a.54.54,0,0,1-.41.41.51.51,0,0,1-.54-.19l-.84-1c-2.54-3.11-4.37-5.35-5.37-8.09a19.74,19.74,0,0,1-.73-12.07,14.21,14.21,0,0,1,.62-1.77h-23.84V980.44c-1.71-.13-3.44-.2-5.13-.5a31,31,0,0,1-11.32-4.05.57.57,0,0,1-.24-.66.55.55,0,0,1,.57-.39c2.49.24,3.64-2.6,4.2-4.23l-.25-.26c-2.57-2.63-5.78-5.9-9.81-7.51a15.17,15.17,0,0,0-2.82-.81,56.6,56.6,0,0,1-8.77.56c-.27.07-.53.13-.8.22a.54.54,0,0,1-.6-.22,2.28,2.28,0,0,0-.36,0,25.23,25.23,0,0,1-9.82-2.37l-1.4-.61c-1.37-.6-2.86-1.25-4.42-2.08v29.42h44.29V1003h-43.88l45,116.86,3.36,1.32,1.45.57V1013.21h20.12v97.18h54.61V1130h8.18V1013a18.66,18.66,0,0,1-1.08,3.94A32.29,32.29,0,0,1,1545.84,1023Z" transform="translate(-1242.52 -670.98)" />
  <path class="b" d="M1275.13,1002,1257,955.1c-1.55.77-2.91,1.52-3.22,3.75a16.64,16.64,0,0,0-.09,6.09c.37,1.56,1.18,3,1.62,4.52,1.4,4.79-3.83,11.06-.4,15.2,2.22,2.67,6.65,1.5,9.72,3.1,5,2.63,5.62,11.61,2.38,15.61-1.43,1.76-3.18,3.38-3.83,5.55a6.06,6.06,0,0,1-.89,2.38,3.2,3.2,0,0,1-3.41.57c-1.17-.37-2.22-1-3.42-1.32-4.9-1.07-11.43,9-10.94,13.32a5.52,5.52,0,0,1-2,5.4l0,.62,47.2,19.88V1003h-14.25Z" transform="translate(-1242.52 -670.98)" />
  <path class="b" d="M1373.64,705.72c0-7.35-6-13.56-13-13.56h-28.31V719.1h28.31A13.2,13.2,0,0,0,1373.64,705.72Z" transform="translate(-1242.52 -670.98)" />
  <path class="b" d="M1478.27,720.1h5.32V671.27l-65.72-.17v49h55.58a58.46,58.46,0,0,1,5.13-6.17C1478.41,715.94,1478.32,718,1478.27,720.1Z" transform="translate(-1242.52 -670.98)" />
  <path class="b" d="M1521.61,757.63a119.79,119.79,0,0,1,19.28,6.23l4.13-5.76a125.16,125.16,0,0,0-21.87-7.22,115,115,0,0,1-5-27.51c11.93.88,25.32,5.09,37,10.5l-7.72-10.78a110,110,0,0,0-29.37-6.67,95.49,95.49,0,0,1,2.57-20.45,57.22,57.22,0,0,1,7.78.56l-18-25.2h-4.3v26.45a57,57,0,0,1,7.35-1.38c-3.9,18-2.87,37,3.08,56.53a121,121,0,0,1-10.43,9.91v8.86A124.66,124.66,0,0,0,1521.61,757.63ZM1520,695.18Z" transform="translate(-1242.52 -670.98)" />
  <path class="b" d="M1549.15,845.87l-1.71-2.31a32.66,32.66,0,0,0-26.54-13.32,33.22,33.22,0,0,0-26.78,53,7.46,7.46,0,0,0,.6-.84,5.07,5.07,0,0,0,.5-1.31l1.44-5.3q1.14-4.23,2.3-8.48l1.18-4.37a5.81,5.81,0,0,0,.2-1.66c0-1.42-.26-3.94-1.24-3.51-.49.21-2.82,1.81-2.82,1.81,0-.73.09-1.58.13-2.37a10.49,10.49,0,0,1,2.21-6,4.41,4.41,0,0,1,1.3-1.2,38.21,38.21,0,0,1,15-3.28c6.72-.22,16.39,1.64,19.54,3.75,5,3.38,8.43,4.08,8.43,4.08a48.4,48.4,0,0,1,4.78,1.76,3.5,3.5,0,0,1,1.78,2.31c0,.1,0,.2.06.28a5.58,5.58,0,0,1,.12,1l0,2.27a17.45,17.45,0,0,1-.68,5l-.57,2c-.84-2.07-4.42-3.19-6.46-3.68a3.55,3.55,0,0,0-2.59.38l-1.55.9a1,1,0,0,0-.48,1.19l2.19,7.66a20.36,20.36,0,0,0,1.34,3.45l2,4a8.75,8.75,0,0,0,2.29,2.9l.18.11c.76-.82,1.49-1.66,2.18-2.56l1.73-2.27,3.77,2.8,8.77-2.8c.23-.08.43-.18.65-.28V836.18Z" transform="translate(-1242.52 -670.98)" />
  <path class="b" d="M1523.37,853.7c-.17.07-1.4.57-.9.95a12.31,12.31,0,0,0,3,2c1.27.5,6-.41,6-.41l.14-.05a11.47,11.47,0,0,0-5.23-2.81A5.08,5.08,0,0,0,1523.37,853.7Z" transform="translate(-1242.52 -670.98)" />
  <path class="b" d="M1395.35,698.26V671.05l-27.44-.07a35.76,35.76,0,0,1,27.44,27.28Z" transform="translate(-1242.52 -670.98)" />
  <path class="b" d="M1564.52,769.18l-4,5.62a94.92,94.92,0,0,1,9.89,8.17,58.16,58.16,0,0,1-35,26.69l-3.47,4.83a49.85,49.85,0,0,1,29.18,19l1.28,1.71V816.06h10.83a31.07,31.07,0,0,0-4.94-10.27.57.57,0,0,1,.14-.83c2.42-1.53,4.3-3.84,6.48-6.52l1-1.23a48.49,48.49,0,0,0,6.24-9.13,63.42,63.42,0,0,0,4.2-10.85l-9.08-12.67a57.28,57.28,0,0,1-3.63,12A102.22,102.22,0,0,0,1564.52,769.18Z" transform="translate(-1242.52 -670.98)" />
  <polygon class="c" points="277.51 24.2 277.51 24.2 277.51 24.2 277.51 24.2" />
  <path class="b" d="M1506.1,802.52v9.82l1.54-2.14.72-1,10.06-14A119.44,119.44,0,0,1,1506.1,802.52Z" transform="translate(-1242.52 -670.98)" />
  <path class="c" d="M1384.79,895.4h10.38a26.21,26.21,0,0,1-4.19-2.12l-1-.59a59.75,59.75,0,0,1-9.39-6.68.53.53,0,0,0-.7,0,.58.58,0,0,0-.14.71,92.38,92.38,0,0,0,4.88,8.51C1384.7,895.27,1384.75,895.33,1384.79,895.4Z" transform="translate(-1242.52 -670.98)" />
  <path class="c" d="M1562.39,891.1V881c-.22.1-.42.2-.65.28l-8.77,2.8Z" transform="translate(-1242.52 -670.98)" />
  <polygon class="c" points="189.5 198.1 209.18 198.1 199.38 172.45 189.5 198.1" />
  <path class="c" d="M1587.92,736.46q.42,3,.77,6l29.62,41.27a81.68,81.68,0,0,0,1.08-15c-.13-3.91-.53-8-3.15-11.13-4.63-5.45-14.65-15.67-14.65-15.67l-5.81-5.73a21.13,21.13,0,0,0-5.06-3.69l-.33-.18c-1.3-.66-2.76-1.41-3.75-2,0,0,1.06,4.55,1.14,5.09C1587.83,735.81,1587.87,736.14,1587.92,736.46Z" transform="translate(-1242.52 -670.98)" />
  <path class="c" d="M1636.84,772.19c-.11.75-.22,1.47-.31,2.14l-.25,1.87c-.56,4.29-1,7.4-2,9.53-1.59,3.2-3.82,4.24-6.64,5.54-.7.33-1.43.67-2.18,1.06l-.13.06-.57.29,12.87,17.92v-5.91q0-19.61.08-39.21C1637.45,767.91,1637.13,770.15,1636.84,772.19Z" transform="translate(-1242.52 -670.98)" />
  <path class="c" d="M1617.55,944.07c.54-.21,1.08-.4,1.62-.59a36,36,0,0,1,5.7-1.28c1.28-.22,2.61-.45,4-.76a42.66,42.66,0,0,0,8.59-2.84l0-16.9a19,19,0,0,1-4.2.36Z" transform="translate(-1242.52 -670.98)" />
  <path class="c" d="M1634.32,948.56a58.31,58.31,0,0,1-11.17,2.53l-1.1.17c-4.22.64-7.26.39-9.08-.76l-6.43,9v3.08c.26.07.52.13.78.22a.55.55,0,0,0,.61-.22,2.19,2.19,0,0,1,.36,0,25.23,25.23,0,0,0,9.82-2.37l1.39-.61a40.94,40.94,0,0,0,7.69-4.08,88.3,88.3,0,0,0,7.66-6,.58.58,0,0,0,.12-.71A.53.53,0,0,0,1634.32,948.56Z" transform="translate(-1242.52 -670.98)" />
  <path class="c" d="M1530.22,932.2v11.9h36.15v16.33h-36.15V986.8h30.32c0-1,0-1.93,0-2.65-.09-1.83-.2-3.58-.45-5.23,1.61.43,3.25.91,4.94,1.4l2.38.23c1.85,0,3.71,0,5.54-.11a49.88,49.88,0,0,0,5.18-.5,30.85,30.85,0,0,0,11.31-4.05.59.59,0,0,0,.25-.66.55.55,0,0,0-.57-.39c-2.49.24-3.64-2.6-4.21-4.23l.25-.26a54,54,0,0,1,4.86-4.52v-6.32L1570.5,932.2Z" transform="translate(-1242.52 -670.98)" />
  <path class="c" d="M1513.78,916.21h48.61V891.79l-1.41,1.88a49.64,49.64,0,0,1-40.08,20.1,50.3,50.3,0,0,1-42.42-23.31l7.71,20,0,76.49h27.57Z" transform="translate(-1242.52 -670.98)" />
  <path class="c" d="M1472.45,805c-2.43-1.53-4.3-3.84-6.48-6.52l-1-1.23a48,48,0,0,1-6.24-9.13c-6.82-13.61-8.25-29.87-6.65-44.82l.15-1.23q.38-3.27.86-6.54c.08-.54,1.13-5.09,1.13-5.09-.83.47-2,1.08-3.14,1.65a26.15,26.15,0,0,0-6.53,4.7l-5.27,5.21-.08.07c-.89.91-10.17,10.41-14.57,15.6-2.62,3.08-3,7.22-3.15,11.13a93.08,93.08,0,0,0,1.83,19.49l.68,3.47c.14.74.28,1.48.43,2.22l.27,1.4c0,.09.1.31.07.4-.08.28-.84.52-1.11.65a27.48,27.48,0,0,0-4.11-2.2c-.56-.23-1.12-.48-1.67-.72-.85-.37-1.66-.74-2.3-1.08l-.13-.06c-.75-.39-1.48-.73-2.18-1.06-2.82-1.3-5-2.34-6.64-5.54-1.06-2.13-1.47-5.24-2-9.53l-.25-1.87c-.09-.67-.19-1.39-.3-2.14-.42-2.91-.89-6.2-1.09-9.91a.58.58,0,0,0-.41-.52.55.55,0,0,0-.6.24,47.54,47.54,0,0,0-3.73,7.71c-.44,1.08-.87,2.11-1.31,3.06-.52,1.14-1,2.31-1.54,3.48a40.13,40.13,0,0,0-2.39,7.3c-1.38,6.67-.34,13,2.26,19.27l.13.34c2.79,7,6.27,23.73,6.27,23.73l-12.85-10.83h0c-.39-.79-.82-1.59-1.27-2.42a49,49,0,0,1-3.11-6.54.57.57,0,0,0-.52-.36.55.55,0,0,0-.51.36,50.48,50.48,0,0,0-2.84,9c-.09.52-.17,1-.21,1.53a24.38,24.38,0,0,0,1.61,10.95,27.36,27.36,0,0,0,2.09,4.24c3,5.08,7.47,9.38,11.52,13.7.55.58,1,1.16,1.56,1.75a52.61,52.61,0,0,1,5.14,7,65.11,65.11,0,0,1,5.61,11.75c-.67-.14-1.34-.28-2-.39a30.19,30.19,0,0,1-4.73-1.25h-26l.09.31a32.22,32.22,0,0,0,5.43,9,42,42,0,0,0,7.72,6.89c1.13.81,2.28,1.54,3.39,2.24a35.82,35.82,0,0,1,4.79,3.4c2.38,2.1,4.6,4.28,5.57,7.59a4,4,0,0,1-.69.61h2L1434,816.06h15.79l21.57,55.83c0-.21-.06-.41-.1-.62a173.56,173.56,0,0,1-5-25.1c-1.42-12.35-1.65-29.92,6.35-40.38a.57.57,0,0,0-.14-.83Z" transform="translate(-1242.52 -670.98)" />
  <path class="c" d="M1376,848.1c-.74-1.33-1.5-2.7-2.33-4a.53.53,0,0,0-.61-.23.57.57,0,0,0-.4.54,36.71,36.71,0,0,0,.19,3.79h3.22A.54.54,0,0,0,1376,848.1Z" transform="translate(-1242.52 -670.98)" />
  <path class="c" d="M1425.34,886.06l-8.4,22v11.41c.28.61.55,1.26.83,2l-.83,0-1.94.11c-.71,0-1.43.06-2.15.11s-1.26.08-1.89.14a24.66,24.66,0,0,1-7.91-.25c-.67-.16-1.37-.3-2.1-.45s-1.52-.32-2.31-.51a24,24,0,0,1-5.26-1.82,31.42,31.42,0,0,1-5.06-3.58c-1.17-.94-2.39-1.92-3.63-2.77a.51.51,0,0,0-.65,0,.55.55,0,0,0-.16.64,60.25,60.25,0,0,0,4.13,8.11c.3.52.6,1,.87,1.51.65,1.15,1.21,2.31,1.75,3.43a22.59,22.59,0,0,0,3.38,5.61,28.82,28.82,0,0,0,4.63,4,33.57,33.57,0,0,0,3.72,2.28,40.47,40.47,0,0,0,9.68,3.38c1.35.31,2.68.54,4,.76l.94.16a30,30,0,0,1,4.75,1.12c3,1,5.83,2.17,8,4.86-1,2.88-4.67,3.86-10.83,2.92l-1.1-.17-.78-.12a55.06,55.06,0,0,1-10.39-2.41.54.54,0,0,0-.66.25.58.58,0,0,0,.13.71,88.3,88.3,0,0,0,7.66,6,31.9,31.9,0,0,0,3.26,2c1.56.83,3,1.48,4.42,2.08l1.4.61a25.23,25.23,0,0,0,9.82,2.37,2.28,2.28,0,0,1,.36,0,.54.54,0,0,0,.6.22c.27-.09.53-.15.8-.22a56.6,56.6,0,0,0,8.77-.56,15.17,15.17,0,0,1,2.82.81c4,1.61,7.24,4.88,9.81,7.51l.25.26c-.56,1.63-1.71,4.47-4.2,4.23a.55.55,0,0,0-.57.39.57.57,0,0,0,.24.66,31,31,0,0,0,11.32,4.05c1.69.3,3.42.37,5.13.5V911.09l-9.55-25Z" transform="translate(-1242.52 -670.98)" />
  <path class="c" d="M1549.46,1005a19.87,19.87,0,0,0-.75-1.93h-57a14.21,14.21,0,0,0-.62,1.77,19.74,19.74,0,0,0,.73,12.07c1,2.74,2.83,5,5.37,8.09l.84,1a.51.51,0,0,0,.54.19.54.54,0,0,0,.41-.41c.92-3.68,3.16-4,5.53-4.38a12.64,12.64,0,0,0,2.22-.47c-.67,3.5-1.27,7.39,0,11.33,1,3.25,4.52,7.16,9,10.17-1-3.77-.39-5.91.77-7.11,2-2,5.77-2.63,7.26-1.6,1.75,1.2,2.19,2.14,1.37,6.17a35.44,35.44,0,0,1-1.57,5.14c-.22.61-1.29,2.44-1.11,3,0,0,1.41-.61,1.58-.71.6-.35,1.1-.85,1.67-1.25,1.56-1.11,3.45-1.68,5-2.87a15.91,15.91,0,0,0,3-3.11c.24-.33.46-.66.66-1s.46-.79.67-1.2a20.67,20.67,0,0,0,2.07-10.34,18.74,18.74,0,0,0-.73-2.88c-.31-1.06-.65-2.23-.9-3.26.06.21,1.8.09,2,.09a2.75,2.75,0,0,1,2.63,1.21,8.21,8.21,0,0,1,1.3,2.91,9.05,9.05,0,0,0,.41,1.14c1.37.38,3.57-3,4.09-3.81a32.29,32.29,0,0,0,3.17-6.05,18.66,18.66,0,0,0,1.08-3.94,16.81,16.81,0,0,0,0-5.39A16.62,16.62,0,0,0,1549.46,1005Z" transform="translate(-1242.52 -670.98)" />
  <path class="c" d="M1537.79,866.79l1.55-.9a3.55,3.55,0,0,1,2.59-.38c2,.49,5.62,1.61,6.46,3.68l.57-2a17.45,17.45,0,0,0,.68-5l0-2.27a5.58,5.58,0,0,0-.12-1c0-.08,0-.18-.06-.28a3.5,3.5,0,0,0-1.78-2.31,48.4,48.4,0,0,0-4.78-1.76s-3.38-.7-8.43-4.08c-3.15-2.11-12.82-4-19.54-3.75a38.21,38.21,0,0,0-15,3.28,4.41,4.41,0,0,0-1.3,1.2,10.49,10.49,0,0,0-2.21,6c0,.79-.08,1.64-.13,2.37,0,0,2.33-1.6,2.82-1.81,1-.43,1.2,2.09,1.24,3.51a5.81,5.81,0,0,1-.2,1.66l-1.18,4.37q-1.15,4.24-2.3,8.48l-1.44,5.3a5.07,5.07,0,0,1-.5,1.31,7.46,7.46,0,0,1-.6.84,33.25,33.25,0,0,0,51.17,2.85l-.18-.11a8.75,8.75,0,0,1-2.29-2.9l-2-4a20.36,20.36,0,0,1-1.34-3.45l-2.19-7.66A1,1,0,0,1,1537.79,866.79Zm-6.28-10.57s-4.75.91-6,.41a12.31,12.31,0,0,1-3-2c-.5-.38.73-.88.9-.95a5.08,5.08,0,0,1,3.05-.34,11.47,11.47,0,0,1,5.23,2.81Z" transform="translate(-1242.52 -670.98)" />
  <path class="c" d="M1574.9,798.44c-2.18,2.68-4.06,5-6.48,6.52a.57.57,0,0,0-.14.83,31.07,31.07,0,0,1,4.94,10.27h6.4v32.3h40.62V824.54l-33.9-47.31a63.42,63.42,0,0,1-4.2,10.85,48.49,48.49,0,0,1-6.24,9.13Z" transform="translate(-1242.52 -670.98)" />
  <polygon class="c" points="377.72 194.22 337.1 194.22 337.1 244.89 355.8 271.86 377.72 241.23 377.72 194.22" />
  <path class="c" d="M1483.59,798.32a57.57,57.57,0,0,0,13.19,8.26,73.2,73.2,0,0,0,9.32-4.06,119.44,119.44,0,0,0,12.32-7.35l22.47-31.31a119.79,119.79,0,0,0-19.28-6.23,124.66,124.66,0,0,1-15.51,14.06A107.61,107.61,0,0,1,1483.59,785q-4.63,2-9.41,3.53A58.42,58.42,0,0,0,1483.59,798.32Z" transform="translate(-1242.52 -670.98)" />
  <path class="c" d="M1483.59,777.35q2.85-1.33,5.63-2.86a93.83,93.83,0,0,1-5.63-14.77,130.15,130.15,0,0,1-3.88-17.69,128.11,128.11,0,0,1-1.44-21.93c0-2.09.14-4.16.31-6.17a58.46,58.46,0,0,0-5.13,6.17A57.06,57.06,0,0,0,1463.8,742a57.77,57.77,0,0,0,6.41,40.44A95.69,95.69,0,0,0,1483.59,777.35Z" transform="translate(-1242.52 -670.98)" />
  <path class="c" d="M1506.1,762.83a121,121,0,0,0,10.43-9.91c-6-19.51-7-38.52-3.08-56.53a57,57,0,0,0-7.35,1.38,57.69,57.69,0,0,0-19.61,9.24c-3.06,16-.6,44.66,8.69,63.92A108.4,108.4,0,0,0,1506.1,762.83Z" transform="translate(-1242.52 -670.98)" />
  <path class="c" d="M1528.43,696.53a57.22,57.22,0,0,0-7.78-.56,95.49,95.49,0,0,0-2.57,20.45,110,110,0,0,1,29.37,6.67Z" transform="translate(-1242.52 -670.98)" />
  <path class="c" d="M1570.37,783a94.92,94.92,0,0,0-9.89-8.17l-25.08,34.86A58.16,58.16,0,0,0,1570.37,783Z" transform="translate(-1242.52 -670.98)" />
  <path class="c" d="M1523.15,750.88A125.16,125.16,0,0,1,1545,758.1l13.77-19.18-3.62-5c-11.66-5.41-25.05-9.62-37-10.5A115,115,0,0,0,1523.15,750.88Z" transform="translate(-1242.52 -670.98)" />
  <path class="c" d="M1577.26,764.56l-4.7-6.55-8,11.17a102.22,102.22,0,0,1,9.11,7.34A57.28,57.28,0,0,0,1577.26,764.56Z" transform="translate(-1242.52 -670.98)" />
</svg>