<svg id="Layer_1" data-name="Layer 1" xmlns="http://www.w3.org/2000/svg" viewBox="0 0 271.78 260.17"><defs><style>.cls-1,.cls-2{fill:#a31d2e;}.cls-1{stroke:#a31d2e;stroke-miterlimit:10;}.cls-3{fill:#fff;}</style></defs><path class="cls-1" d="M17.67,55.13a4.25,4.25,0,0,1,5.83-1.44l16.59,10a4.34,4.34,0,0,1,1.44,5.83L34.63,81l8.42,5.09-5,8.32L5.75,74.88ZM31.61,70.52a.54.54,0,0,0-.18-.69l-9.18-5.54a.54.54,0,0,0-.73.14L17.7,70.75l10.1,6.09Z"/><path class="cls-1" d="M82,48.69l-8,5.43L65.6,41.71,58,46.86l8.37,12.42-8,5.43L37.18,33.45,45.24,28,53.3,40l7.64-5.15-8.06-12,8.06-5.43Z"/><path class="cls-1" d="M106.77,2.88A4.19,4.19,0,0,1,112,6.21l6.34,28.17a4.2,4.2,0,0,1-3.33,5.28L96.14,43.91a4.18,4.18,0,0,1-5.27-3.33L84.52,12.41a4.21,4.21,0,0,1,3.34-5.28Zm-3.25,9.72a.63.63,0,0,0-.74-.47l-7.46,1.68a.62.62,0,0,0-.36.71L99.42,34.3a.53.53,0,0,0,.6.38L107.48,33a.56.56,0,0,0,.49-.62Z"/><path class="cls-1" d="M132.43.52,157,1.66l-.37,8.09-14.95-.69-.31,6.58,12.95.6-.37,8L141,23.68l-.31,6.81,14.95.69-.38,8.15-24.6-1.14Z"/><path class="cls-1" d="M180.74,24.38l-7.07,19.48-8.4-3L178.13,5.37l8.4,3.05,3.52,23.38,7.09-19.53,8.4,3.05L192.68,50.76,184,47.62Z"/><path class="cls-1" d="M209.48,63.31l-7.62-5.93L225,27.61l7.63,5.93Z"/><path class="cls-1" d="M237.32,65.81l9.79-19.35,6,9L247.31,66.2l11.6-2,5.8,8.69-22,2.17-9.45,18.65-6-8.93,5.55-10.41-11.62,1.3-5.67-8.5Z"/><path class="cls-2" d="M206.27,124.15a.25.25,0,0,0-.3.11c-.4.61-.77,1.27-1.13,1.91a11,11,0,0,1-4.59,5c-.3.2-.59.4-.86.6a11.88,11.88,0,0,1-3.5,1.59l-.86.3c-.34.11-.66.23-1,.35a18.9,18.9,0,0,1-3.59,1.07c-.33.05-.65.12-1,.19a27.77,27.77,0,0,1,5.95-9.9c2.48-2.64,5.26-5.26,6.57-8.66a11.7,11.7,0,0,0,.78-5.29,19.75,19.75,0,0,0-1.47-5.07.27.27,0,0,0-.25-.18.29.29,0,0,0-.25.18,23.75,23.75,0,0,1-1.5,3.16c-.22.4-.43.79-.62,1.17a15.16,15.16,0,0,1-2.56,3.88,5.37,5.37,0,0,1-3.64,1.35s1.74-8.36,3.09-11.63A15.54,15.54,0,0,0,196.66,95a24.62,24.62,0,0,0-1.9-5.21c-.21-.45-.42-1-.63-1.48a23.36,23.36,0,0,0-1.8-3.72.26.26,0,0,0-.29-.11.28.28,0,0,0-.2.25,47.39,47.39,0,0,1-.53,4.78c-.05.37-.1.71-.14,1l-.12.9a16.33,16.33,0,0,1-1,4.6,5.56,5.56,0,0,1-3.2,2.68c-.34.16-.7.32-1.06.51l-.06,0c-.52.27-1.24.59-1.92.87a12.19,12.19,0,0,0-2,1.07c-.13-.07-.5-.19-.54-.32s0-.15,0-.19l.14-.68c.06-.36.13-.71.2-1.07l.33-1.68a45.05,45.05,0,0,0,.88-9.41c-.06-1.89-.25-3.89-1.52-5.38-2.23-2.63-7.07-7.57-7.07-7.57l-2.81-2.77a10.68,10.68,0,0,0-2.6-1.87c-.63-.32-1.34-.68-1.81-.94,0,0,.51,2.19.55,2.46.18,1.24.35,2.49.48,3.75.77,7.22.08,15.08-3.21,21.65a23.16,23.16,0,0,1-3,4.41l-.49.59a13.81,13.81,0,0,1-3.13,3.16.26.26,0,0,0-.12.18.34.34,0,0,0,.05.22c3.87,5.05,3.76,13.54,3.07,19.5a85.8,85.8,0,0,1-2.69,13.18,5.57,5.57,0,0,1-3.53,3.79l-7.45,2.38a.6.6,0,0,1-.59-.1,4.33,4.33,0,0,1-1.11-1.4l-.95-1.94a10.31,10.31,0,0,1-.65-1.67l-1.06-3.7a.5.5,0,0,1,.23-.57l.75-.44a1.73,1.73,0,0,1,1.26-.18c1,.23,2.71.77,3.12,1.77l.27-1a8.13,8.13,0,0,0,.33-2.4v-1.1a2,2,0,0,0-.06-.48l0-.14a1.68,1.68,0,0,0-.86-1.12c-.54-.28-2.31-.84-2.31-.84a13,13,0,0,1-4.07-2c-1.52-1-6.19-1.91-9.44-1.8a18.25,18.25,0,0,0-7.24,1.58,1.94,1.94,0,0,0-.63.58,5,5,0,0,0-1.06,2.9c0,.39,0,.8-.07,1.15,0,0,1.13-.77,1.37-.87.47-.21.57,1,.59,1.69a2.69,2.69,0,0,1-.09.8l-.57,2.12-1.11,4.09-.7,2.56a2.9,2.9,0,0,1-.24.64,6.08,6.08,0,0,1-.87,1,1.34,1.34,0,0,1-.34.29,2,2,0,0,1-1.51,0,11.92,11.92,0,0,1-1.32-.42c-.87-.32-1.72-.69-2.57-1.06-.31-.14-.61-.28-.92-.39a5.59,5.59,0,0,1-3.54-3.79,85.8,85.8,0,0,1-2.69-13.18c-.69-6-.8-14.45,3.07-19.5a.28.28,0,0,0-.07-.4,13.81,13.81,0,0,1-3.13-3.16l-.48-.59a23.18,23.18,0,0,1-3-4.41c-3.29-6.57-4-14.43-3.21-21.65.14-1.26.3-2.51.49-3.75,0-.27.55-2.46.55-2.46-.41.22-1,.52-1.53.79a12.83,12.83,0,0,0-3.15,2.27L95.87,74.9S91,79.84,88.8,82.47C87.54,84,87.34,86,87.28,87.85a45.05,45.05,0,0,0,.88,9.41l.33,1.68L88.7,100l.13.68s0,.15,0,.19-.4.25-.53.32a12.71,12.71,0,0,0-2-1.07c-.68-.28-1.4-.6-1.92-.87l-.06,0c-.36-.19-.71-.35-1-.51A5.55,5.55,0,0,1,80.1,96a16,16,0,0,1-1-4.6l-.12-.9c0-.33-.1-.67-.15-1-.2-1.4-.43-3-.53-4.78a.28.28,0,0,0-.2-.25.26.26,0,0,0-.29.11A23.36,23.36,0,0,0,76,88.3c-.21.53-.42,1-.63,1.48A25.18,25.18,0,0,0,73.5,95a15.54,15.54,0,0,0,1.09,9.31c1.36,3.27,3.1,11.63,3.1,11.63A5.39,5.39,0,0,1,74,114.58a15.16,15.16,0,0,1-2.56-3.88c-.19-.38-.4-.77-.62-1.17a25.07,25.07,0,0,1-1.5-3.16.29.29,0,0,0-.25-.18.27.27,0,0,0-.25.18,19.75,19.75,0,0,0-1.47,5.07,11.84,11.84,0,0,0,.78,5.29c1.31,3.4,4.09,6,6.57,8.66a27.63,27.63,0,0,1,6,9.9c-.32-.07-.65-.14-1-.19a18.78,18.78,0,0,1-3.6-1.07c-.33-.12-.65-.24-1-.35l-.86-.3a11.88,11.88,0,0,1-3.5-1.59l-.85-.6a15,15,0,0,1-3-2.46,15.79,15.79,0,0,1-1.62-2.56c-.36-.64-.73-1.3-1.13-1.91a.25.25,0,0,0-.3-.11.26.26,0,0,0-.18.26,29,29,0,0,0,.4,4.4c0,.29.08.57.12.83.09.64.13,1.26.17,1.87a11.22,11.22,0,0,0,.51,3.14A15.66,15.66,0,0,0,67.54,139a20.13,20.13,0,0,0,3.72,3.33c.55.39,1.1.74,1.64,1.08a18.74,18.74,0,0,1,2.32,1.64,7.91,7.91,0,0,1,2.69,3.67c-1,1.1-2.78.85-5.37-.73l-.46-.29a28.18,28.18,0,0,1-4.54-3.22.26.26,0,0,0-.34,0,.27.27,0,0,0-.07.34,43.33,43.33,0,0,0,2.36,4.11,20.85,20.85,0,0,0,2.72,3.28c.17.18.34.35.5.53a12.5,12.5,0,0,0,4,2.9,27,27,0,0,0,4.6,1.68,4.65,4.65,0,0,1,3.53,2.75,16.71,16.71,0,0,1,.67,1.55l-1.33.07-1,.05-.91.07a11.77,11.77,0,0,1-3.82-.12l-1-.22a14.37,14.37,0,0,1-3.66-1.12,15.93,15.93,0,0,1-2.44-1.73c-.57-.46-1.15-.93-1.75-1.34a.27.27,0,0,0-.32,0,.3.3,0,0,0-.08.32,28.59,28.59,0,0,0,2,3.91c.15.25.29.5.42.73.31.56.58,1.12.85,1.66A10.49,10.49,0,0,0,74,166.62a15,15,0,0,0,4,3,20.2,20.2,0,0,0,4.68,1.63c.65.15,1.29.26,1.91.36a18.77,18.77,0,0,1,2.75.62,7.66,7.66,0,0,1,3.84,2.35C90.73,176,89,176.46,86,176l-.53-.08a28,28,0,0,1-5.39-1.23.26.26,0,0,0-.32.13.27.27,0,0,0,.06.34,43.88,43.88,0,0,0,3.7,2.89,19.91,19.91,0,0,0,3.71,2l.67.3a12.41,12.41,0,0,0,4.75,1.14.5.5,0,0,1,.17,0,.29.29,0,0,0,.3.1l.38-.11a26.67,26.67,0,0,0,4.24-.27,7.85,7.85,0,0,1,1.36.39,14.72,14.72,0,0,1,4.74,3.63l.12.13c-.27.79-.83,2.16-2,2a.26.26,0,0,0-.27.19.28.28,0,0,0,.11.32,15,15,0,0,0,5.47,2c.82.14,1.66.18,2.5.24s1.78,0,2.68,0c.6,0,1.21,0,1.82.06a11.33,11.33,0,0,0,1.43-.05c.42,0,.69-.09.69.43a13,13,0,0,1-.26,3.93,31.51,31.51,0,0,1-1.62,3.79l-.08.16a.29.29,0,0,0,0,.24c0,.08.13.1.2.15a3.79,3.79,0,0,0,4,.19l.69-.45c1.33-.81,2.9-3,4.47-1.61a4.19,4.19,0,0,1-.73,1.13,11,11,0,0,0-2.11,3.74,9.6,9.6,0,0,0,.36,5.83,13.79,13.79,0,0,0,2.59,3.91l.4.49a.26.26,0,0,0,.27.09.27.27,0,0,0,.2-.19c.44-1.78,1.52-1.95,2.67-2.12a6,6,0,0,0,1.07-.23,11.11,11.11,0,0,0,0,5.47c.49,1.57,2.19,3.46,4.35,4.92-.48-1.82-.19-2.85.38-3.44.95-1,2.78-1.27,3.5-.77s1.06,1,.67,3a18.36,18.36,0,0,1-.77,2.49c-.1.29-.62,1.17-.53,1.46l.76-.34c.29-.17.53-.42.81-.61.75-.54,1.67-.81,2.4-1.39a7.53,7.53,0,0,0,1.43-1.5c.11-.16.22-.32.32-.48a6.55,6.55,0,0,0,.32-.58,9.92,9.92,0,0,0,1-5,8.19,8.19,0,0,0-.35-1.39c-.15-.51-.31-1.08-.43-1.57,0,.1.86,0,1,0a1.32,1.32,0,0,1,1.27.59,3.85,3.85,0,0,1,.63,1.4,3.47,3.47,0,0,0,.2.55c.66.19,1.72-1.46,2-1.84a14.78,14.78,0,0,0,1.53-2.92,8.27,8.27,0,0,0,.22-5.77,13,13,0,0,0-1.86-3.46c-.31-.44-.74-1.05-.68-1.2,1.57-1.39,2.6.93,4,2l.11.09a5.3,5.3,0,0,0,5,.25.34.34,0,0,0,.19-.14.26.26,0,0,0,0-.23,17.23,17.23,0,0,1-1.43-4.75c-.08-.73,0-1.91-.07-2.62-.05-.89-.1-1.73-.22-2.53.78.21,1.57.44,2.39.68l1.14.11c.9,0,1.8,0,2.68,0s1.68-.1,2.5-.24a15,15,0,0,0,5.47-2,.29.29,0,0,0,.12-.32.28.28,0,0,0-.28-.19c-1.2.12-1.75-1.25-2-2l.12-.13a14.83,14.83,0,0,1,4.74-3.63,7.58,7.58,0,0,1,1.38-.39,26.22,26.22,0,0,0,4.22.27l.39.11a.27.27,0,0,0,.29-.1.5.5,0,0,1,.17,0,12.37,12.37,0,0,0,4.75-1.14l.67-.3a19.91,19.91,0,0,0,3.71-2,43.88,43.88,0,0,0,3.7-2.89.26.26,0,0,0,.06-.34.25.25,0,0,0-.31-.13,28.09,28.09,0,0,1-5.4,1.23l-.53.08c-3,.45-4.74,0-5.23-1.41a7.7,7.7,0,0,1,3.84-2.35,18.77,18.77,0,0,1,2.75-.62c.62-.1,1.26-.21,1.91-.36a20.2,20.2,0,0,0,4.68-1.63,15.25,15.25,0,0,0,4-3,11.07,11.07,0,0,0,1.63-2.71c.26-.54.53-1.1.84-1.66l.42-.73a28.59,28.59,0,0,0,2-3.91.3.3,0,0,0-.08-.32.26.26,0,0,0-.31,0c-.6.41-1.19.88-1.76,1.34a15.93,15.93,0,0,1-2.44,1.73,14.37,14.37,0,0,1-3.66,1.12c-.35.07-.69.14-1,.22a11.78,11.78,0,0,1-3.82.12l-.92-.07-1-.05-1.33-.07c.22-.59.45-1.08.67-1.55a4.65,4.65,0,0,1,3.53-2.75,26.72,26.72,0,0,0,4.6-1.68,12.5,12.5,0,0,0,4-2.9c.16-.18.33-.35.51-.53a20.83,20.83,0,0,0,2.71-3.28,43.33,43.33,0,0,0,2.36-4.11.27.27,0,0,0-.07-.34.26.26,0,0,0-.34,0,28.14,28.14,0,0,1-4.53,3.22l-.47.29c-2.59,1.58-4.39,1.83-5.36.73a7.91,7.91,0,0,1,2.69-3.67,17.89,17.89,0,0,1,2.31-1.64c.54-.34,1.09-.69,1.64-1.08a20.16,20.16,0,0,0,3.73-3.33,15.62,15.62,0,0,0,2.62-4.36,11.22,11.22,0,0,0,.51-3.14c0-.61.09-1.23.17-1.87,0-.26.08-.54.12-.83a29,29,0,0,0,.41-4.4A.27.27,0,0,0,206.27,124.15Zm-65.84,5.95a9.87,9.87,0,0,1-2.91.2,6.15,6.15,0,0,1-1.46-1c-.24-.19.36-.43.44-.46a2.57,2.57,0,0,1,1.47-.17,5.61,5.61,0,0,1,2.53,1.36Z"/><path class="cls-2" d="M133.2,80.2a53.67,53.67,0,0,1-1.49-27.32,27.9,27.9,0,0,0-13,5.13c-1.47,7.75-.29,21.58,4.2,30.88A55.57,55.57,0,0,0,133.2,80.2Z"/><path class="cls-2" d="M135.18,52.68a46.55,46.55,0,0,0-1.24,9.88c8.81.59,20.09,4.73,28,10.23A27.92,27.92,0,0,0,135.18,52.68Z"/><path class="cls-2" d="M123.65,106.12c7.46-2.58,18.88-10.53,24.7-19.07a55.7,55.7,0,0,0-12.7-4.58,53.79,53.79,0,0,1-22.91,14.91A28.08,28.08,0,0,0,123.65,106.12Z"/><path class="cls-2" d="M107.14,80.62a27.89,27.89,0,0,0,3.68,13.85A47.12,47.12,0,0,0,120,90.62c-3.88-7.91-5.94-19.72-5.14-29.26A27.67,27.67,0,0,0,107.14,80.62Z"/><path class="cls-2" d="M136.39,79.21A53.75,53.75,0,0,1,160.78,91.6a27.68,27.68,0,0,0,2.24-11c0-.94-.05-1.9-.14-2.85-6-5.17-18.57-11.09-28.88-11.85A55.26,55.26,0,0,0,136.39,79.21Z"/><path class="cls-2" d="M128.45,107.77A28,28,0,0,0,159.2,94.71a46.32,46.32,0,0,0-7.92-6C146.35,96,137.13,103.71,128.45,107.77Z"/><polygon class="cls-2" points="134.88 52.3 134.88 52.3 134.88 52.3 134.88 52.3"/><path class="cls-2" d="M123.65,106.12c7.46-2.58,18.88-10.53,24.7-19.07a55.7,55.7,0,0,0-12.7-4.58,53.79,53.79,0,0,1-22.91,14.91A28.08,28.08,0,0,0,123.65,106.12Z"/><path class="cls-2" d="M107.14,80.62a27.89,27.89,0,0,0,3.68,13.85A47.12,47.12,0,0,0,120,90.62c-3.88-7.91-5.94-19.72-5.14-29.26A27.67,27.67,0,0,0,107.14,80.62Z"/><path class="cls-2" d="M118.68,58c-1.47,7.75-.29,21.58,4.2,30.88A55.57,55.57,0,0,0,133.2,80.2a53.67,53.67,0,0,1-1.49-27.32A27.9,27.9,0,0,0,118.68,58Z"/><path class="cls-2" d="M135.18,52.68a46.55,46.55,0,0,0-1.24,9.88c8.81.59,20.09,4.73,28,10.23A27.92,27.92,0,0,0,135.18,52.68Z"/><path class="cls-2" d="M159.2,94.71a46.32,46.32,0,0,0-7.92-6c-4.93,7.34-14.15,15-22.83,19.08A28,28,0,0,0,159.2,94.71Z"/><path class="cls-2" d="M163,80.62c0-.94-.05-1.9-.14-2.85-6-5.17-18.57-11.09-28.88-11.85a55.26,55.26,0,0,0,2.39,13.29A53.75,53.75,0,0,1,160.78,91.6,27.68,27.68,0,0,0,163,80.62Z"/><path class="cls-2" d="M8.75,166.43l22-5.18,3.2,13.54a2.78,2.78,0,0,1-2.08,3.59L27,179.53a3.65,3.65,0,0,1-4.13-2.19c0,2.13-1.11,3.59-2.57,3.94l-4.78,1.13A2.74,2.74,0,0,1,12,180.14Zm11.26,9a.34.34,0,0,0,.28-.41l-1.19-5.08-4.85,1.14,1.2,5.08a.31.31,0,0,0,.4.25Zm8.6-2a.34.34,0,0,0,.28-.41l-1.2-5.08L23.13,169l1.2,5.07a.33.33,0,0,0,.44.25Z"/><path class="cls-2" d="M35.91,181.23l6.22,13.38-4.4,2L34,188.52l-3.58,1.66,3.27,7-4.37,2-3.27-7-3.7,1.72,3.78,8.13-4.43,2.05-6.21-13.38Z"/><path class="cls-2" d="M36.41,224.26l-3.64-4.54,4.37-3.51-3.2-4-4.38,3.52-3.64-4.54,15.53-12.48a2.5,2.5,0,0,1,3.71.4l7.19,8.94a2.51,2.51,0,0,1-.4,3.71ZM41,213.15l5.29-4.26a.71.71,0,0,0,0-1L44,205a.68.68,0,0,0-1-.12l-5.29,4.25Z"/><path class="cls-2" d="M61.34,233.58l-3.48,4.71a2.58,2.58,0,0,1-3.65.49L45.1,232a2.53,2.53,0,0,1-.54-3.6l10.39-14a2.57,2.57,0,0,1,3.58-.51l9.11,6.75a2.63,2.63,0,0,1,.61,3.61l-3.47,4.68-4.67-3.47L62,223a.38.38,0,0,0,0-.48L58.54,220A.37.37,0,0,0,58,220l-7.22,9.76a.33.33,0,0,0,.09.48l3.42,2.53a.33.33,0,0,0,.44-.09l1.91-2.58Z"/><path class="cls-2" d="M79.18,251.26l-5.34-2.34,3.6-8.21-5.06-2.21-3.59,8.21-5.33-2.33,9-20.68L77.83,226l-3.45,7.91,5.05,2.21,3.46-7.91,5.33,2.33Z"/><path class="cls-2" d="M115.58,236.68l-10.76,20.95-5.52-1L97,233.21l6.11,1.14.45,14.68,6.35-13.4Z"/><path class="cls-2" d="M131.44,237.61a2.51,2.51,0,0,1,2.49,2.79l-1,17.26a2.51,2.51,0,0,1-2.79,2.48l-11.59-.67a2.51,2.51,0,0,1-2.48-2.79l1-17.26a2.51,2.51,0,0,1,2.79-2.49Zm-3.47,5a.37.37,0,0,0-.35-.38l-4.57-.27a.36.36,0,0,0-.32.35L122,254.48a.33.33,0,0,0,.29.32l4.57.26a.35.35,0,0,0,.39-.28Z"/><path class="cls-2" d="M138.6,237.65l5.78-.38,1.17,17.65,7.17-.48.33,4.88-13,.85Z"/><path class="cls-2" d="M154.76,236.3l5.68-1.09,3.34,17.37,7.06-1.36.92,4.8L159,258.46Z"/><path class="cls-2" d="M170.55,233.05l14-4.77,1.56,4.59-8.48,2.9,1.28,3.73,7.34-2.5,1.55,4.55-7.34,2.51,1.32,3.86,8.48-2.9,1.58,4.62-14,4.77Z"/><path class="cls-2" d="M202.64,244.48l-3.16-5.82-2.65,1.44a2.63,2.63,0,0,1-3.51-1.14L187,227.3l5.11-2.78,5,9.14a.38.38,0,0,0,.48.12l4.08-2.22c.18-.1.13-.26,0-.41l-5-9.13,5.11-2.78,6.35,11.66a2.63,2.63,0,0,1-1,3.56l-2.61,1.42,3.16,5.82Z"/><path class="cls-2" d="M219,234.68l-14.61-17.2,10.6-9a2.77,2.77,0,0,1,4.13.22l3.25,3.82a3.63,3.63,0,0,1-.07,4.67c1.91-1,3.71-.65,4.68.5l3.18,3.74a2.74,2.74,0,0,1-.43,4.14Zm-2.83-20.84a.35.35,0,0,0-.5-.07l-4,3.38,3,3.57,4-3.38a.33.33,0,0,0,0-.5Zm5.71,6.72a.34.34,0,0,0-.49-.06l-4,3.38,3.22,3.79,4-3.37a.33.33,0,0,0,0-.48Z"/><path class="cls-2" d="M247.68,203.87l-3.43,4.7-4.54-3.31-3,4.13,4.54,3.31-3.43,4.7-16.1-11.75a2.51,2.51,0,0,1-.57-3.69l6.76-9.26a2.51,2.51,0,0,1,3.69-.58Zm-11.91-1.49-5.49-4a.7.7,0,0,0-1,.25l-2.13,2.92a.68.68,0,0,0,.13,1l5.48,4Z"/><path class="cls-2" d="M231.13,187.07l2.35-5.28,16.16,7.2,2.93-6.57,4.46,2-5.28,11.85Z"/><path class="cls-2" d="M237.2,172.45l1.43-5.61,17.15,4.36,1.77-7,4.73,1.2L259.08,178Z"/><path class="cls-2" d="M15.06,136.53H9.93v-5H5.41v5H.27V118.94a2.23,2.23,0,0,1,2.34-2.34H12.73a2.22,2.22,0,0,1,2.33,2.34Zm-5.13-9.27v-6c0-.36-.3-.59-.71-.59H6a.6.6,0,0,0-.62.59v6Z"/><path class="cls-2" d="M26.73,120.91H19.58V116.6H32.86v4.11l-7.61,11.51h7.91v4.31H19.28v-4.1Z"/><path class="cls-2" d="M243.93,116.6V132a.29.29,0,0,0,.27.26H248a.3.3,0,0,0,.32-.26V116.6h5.14v17.66a2.23,2.23,0,0,1-2.25,2.27H241.07a2.28,2.28,0,0,1-2.28-2.27V116.6Z"/><path class="cls-2" d="M258.66,132.22h7.47c.21,0,.33-.12.33-.26v-2.9c0-.14-.12-.26-.33-.26H261a2.22,2.22,0,0,1-2.33-2.33v-7.53A2.22,2.22,0,0,1,261,116.6H271.3v4.29h-7.21a.3.3,0,0,0-.29.32v2.92a.29.29,0,0,0,.29.27h5.14a2.21,2.21,0,0,1,2.33,2.33v7.47a2.21,2.21,0,0,1-2.33,2.33H258.66Z"/><line class="cls-3" x1="1.12" y1="111.92" x2="32.16" y2="111.92"/><path class="cls-2" d="M32.16,112.92h-31a1,1,0,0,1,0-2h31a1,1,0,0,1,0,2Z"/><line class="cls-3" x1="1" y1="141.22" x2="32.31" y2="141.22"/><path class="cls-2" d="M32.31,142.22H1a1,1,0,0,1,0-2H32.31a1,1,0,0,1,0,2Z"/><line class="cls-3" x1="239.58" y1="111.92" x2="270.62" y2="111.92"/><path class="cls-2" d="M270.62,112.92h-31a1,1,0,0,1,0-2h31a1,1,0,0,1,0,2Z"/><line class="cls-3" x1="239.47" y1="141.22" x2="270.77" y2="141.22"/><path class="cls-2" d="M270.77,142.22h-31.3a1,1,0,1,1,0-2h31.3a1,1,0,1,1,0,2Z"/><path class="cls-2" d="M85.22,207.33h5.29v1.74H87.3v1.41h2.78v1.73H87.3v1.46h3.21v1.75H85.22Z"/><path class="cls-2" d="M92.36,213.67h3c.08,0,.13,0,.13-.11v-1.17a.12.12,0,0,0-.13-.11H93.31a.9.9,0,0,1-1-.95v-3.05a.9.9,0,0,1,1-.95H97.5v1.74H94.57a.12.12,0,0,0-.12.13v1.19a.12.12,0,0,0,.12.1h2.09a.91.91,0,0,1,1,.95v3a.9.9,0,0,1-1,.94h-4.3Z"/><path class="cls-2" d="M104.7,207.33v1.75h-1.84v6.34h-2.08v-6.34H98.94v-1.75Z"/><path class="cls-2" d="M110.6,207.33a1.65,1.65,0,0,1,1.64,1.64v4.8a1.65,1.65,0,0,1-1.64,1.65h-4.35v-8.09Zm-.43,2.33a.56.56,0,0,0-.59-.59h-1.25v4.6h1.25a.56.56,0,0,0,.59-.58Z"/><path class="cls-2" d="M160.23,212a.12.12,0,0,0-.13.13v1.44h3.52v1.83H158v-4.27c0-.46.46-.69.92-.69h2.55a.12.12,0,0,0,.14-.13v-1.16a.12.12,0,0,0-.14-.13H158.2v-1.71h4.59a1,1,0,0,1,.92.92v2.86a1,1,0,0,1-.92.91Z"/><path class="cls-2" d="M171.74,208.24v6.26a.9.9,0,0,1-.91.92h-4.1a.93.93,0,0,1-.93-.92v-6.26a.92.92,0,0,1,.93-.91h4.1A.9.9,0,0,1,171.74,208.24Zm-2.22,5.46c.09,0,.13,0,.13-.14v-4.39a.12.12,0,0,0-.13-.13H168a.12.12,0,0,0-.13.13v4.39a.12.12,0,0,0,.13.14Z"/><path class="cls-2" d="M173.74,208.05l2.17-.72h1.88v6.26H180v1.83h-6.5v-1.83h2.23v-4.47l-1.73.39Z"/><path class="cls-2" d="M185,213.71a.12.12,0,0,0,.13-.13v-1.17h-2.93a1,1,0,0,1-.91-.92v-3.25a1,1,0,0,1,.91-.91h4.09c.7,0,.93.68.93,1.14v6a.84.84,0,0,1-.93.92h-4.82v-1.71Zm0-2.77a.12.12,0,0,0,.13-.13v-1.64A.12.12,0,0,0,185,209h-1.49a.12.12,0,0,0-.13.13v1.64a.12.12,0,0,0,.13.13Z"/></svg>